<svg width="50" height="50" viewBox="0 0 50 50" fill="none" xmlns="http://www.w3.org/2000/svg">
<g clip-path="url(#clip0_93_6)">
<path d="M32.4227 17.7734L48.0481 6.05469H47.0702V2.92969H44.1405V6.05469H41.1127L25.4873 17.7734H32.4227Z" fill="black"/>
<path d="M20.6063 17.7734L36.2317 6.05469H29.3939L13.7686 17.7734H20.6063Z" fill="black"/>
<path d="M5.85938 6.05469V2.92969H2.92969V6.05469H0V15.5772L12.6967 6.05469H5.85938Z" fill="black"/>
<path d="M37.3039 17.7734H44.1407V20.7031H41.1134L25.498 32.4219H32.422C32.7234 32.1956 48.3388 20.4769 48.0373 20.7031H47.0704V17.7734H50.0001V8.25146L37.3039 17.7734Z" fill="black"/>
<path d="M8.88672 32.4219L24.5021 20.7031H17.5781C17.2767 20.9294 1.66133 32.6481 1.96279 32.4219H2.92969V44.1406H0V47.0703H8.78906V44.1406H5.85938V32.4219H8.88672Z" fill="black"/>
<path d="M13.7686 32.4219H20.6063L36.2317 20.7031H29.3939L13.7686 32.4219Z" fill="black"/>
<path d="M5.85938 20.7031V17.7734H8.88672L24.5021 6.05469H17.5781C17.2767 6.28096 1.66133 17.9997 1.96279 17.7734H2.92969V20.7031H0V30.2257L12.6967 20.7031H5.85938Z" fill="black"/>
<path d="M44.1405 32.4219V44.1406H41.2108V47.0703H49.9999V44.1406H47.0702V32.4219H49.9999V22.8999L37.3037 32.4219H44.1405Z" fill="black"/>
</g>
<defs>
<clipPath id="clip0_93_6">
<rect width="50" height="50" fill="white"/>
</clipPath>
</defs>
</svg>
