<svg width="32" height="33" viewBox="0 0 32 33" fill="none" xmlns="http://www.w3.org/2000/svg">
<path d="M29 16.5H3C2.447 16.5 2 16.947 2 17.5C2 18.053 2.447 18.5 3 18.5H4.08L4.85 27.749C4.979 29.291 6.292 30.5 7.84 30.5H24.16C25.708 30.5 27.021 29.291 27.148 27.749L27.92 18.5H29C29.553 18.5 30 18.053 30 17.5C30 16.947 29.553 16.5 29 16.5ZM25.155 27.583C25.112 28.106 24.685 28.5 24.16 28.5H7.84C7.316 28.5 6.888 28.106 6.844 27.583L6.086 18.5H25.913L25.155 27.583Z" fill="black"/>
<path d="M15 25.5V21.5C15 20.947 15.447 20.5 16 20.5C16.553 20.5 17 20.947 17 21.5V25.5C17 26.053 16.553 26.5 16 26.5C15.447 26.5 15 26.053 15 25.5Z" fill="black"/>
<path d="M10 25.5V21.5C10 20.947 10.447 20.5 11 20.5C11.553 20.5 12 20.947 12 21.5V25.5C12 26.053 11.553 26.5 11 26.5C10.447 26.5 10 26.053 10 25.5Z" fill="black"/>
<path d="M20 25.5V21.5C20 20.947 20.447 20.5 21 20.5C21.553 20.5 22 20.947 22 21.5V25.5C22 26.053 21.553 26.5 21 26.5C20.447 26.5 20 26.053 20 25.5Z" fill="black"/>
<path d="M13 14.5V12.517C13 12.104 12.871 11.704 12.627 11.361C11.747 10.125 11.248 8.851 11.079 7.501H9.921C9.752 8.853 9.253 10.126 8.373 11.361C8.129 11.704 8 12.104 8 12.517V14.5C8 15.053 7.553 15.5 7 15.5C6.447 15.5 6 15.053 6 14.5V12.517C6 11.688 6.257 10.887 6.743 10.202C7.382 9.304 7.766 8.422 7.92 7.484C7.407 7.441 7 7.024 7 6.5C7 5.947 7.447 5.5 8 5.5H13C13.553 5.5 14 5.947 14 6.5C14 7.024 13.593 7.441 13.08 7.484C13.234 8.421 13.617 9.303 14.256 10.2C14.743 10.885 15 11.686 15 12.517V14.5C15 15.053 14.553 15.5 14 15.5C13.447 15.5 13 15.053 13 14.5Z" fill="black"/>
<path d="M21.9699 14.437C22.1109 12.22 21.7419 10.761 20.9859 10.534C20.1099 10.267 18.9169 11.951 17.9479 14.82C17.7679 15.355 17.1889 15.622 16.6809 15.448C16.1579 15.271 15.8759 14.705 16.0529 14.181C17.8809 8.763 20.0529 8.16 21.5629 8.619C23.3739 9.163 24.1819 11.164 23.9659 14.564C23.9309 15.115 23.4499 15.525 22.9039 15.499C22.3539 15.463 21.9349 14.988 21.9699 14.437Z" fill="black"/>
<path d="M30.7068 5.793C31.0978 6.184 31.0978 6.816 30.7068 7.207C30.3158 7.598 29.6838 7.598 29.2928 7.207L27.9998 5.914V11.5C27.9998 12.053 27.5528 12.5 26.9998 12.5C26.4468 12.5 25.9998 12.053 25.9998 11.5V5.914L24.7068 7.207C24.3158 7.598 23.6838 7.598 23.2928 7.207C22.9018 6.816 22.9018 6.184 23.2928 5.793L26.2928 2.793C26.6838 2.402 27.3158 2.402 27.7068 2.793L30.7068 5.793Z" fill="black"/>
</svg>
