<svg width="39" height="31" viewBox="0 0 39 31" fill="none" xmlns="http://www.w3.org/2000/svg">
<path fill-rule="evenodd" clip-rule="evenodd" d="M23.6786 4.25C24.6724 4.25 25.6255 4.6486 26.3283 5.3581L26.7596 5.79355C28.1589 7.20632 30.0568 8 32.0357 8C34.0146 8 35.9125 7.20632 37.3118 5.79355L38.4561 4.63833C39.1813 3.90609 39.1813 2.71891 38.4561 1.98668C37.7308 1.25444 36.5549 1.25444 35.8297 1.98667L34.6854 3.1419C33.9827 3.8514 33.0296 4.25 32.0357 4.25C31.0419 4.25 30.0887 3.8514 29.386 3.1419L28.9547 2.70645C27.5554 1.29368 25.6575 0.5 23.6786 0.5C21.6995 0.5 19.8018 1.29372 18.4025 2.70638L17.9713 3.14183C17.9712 3.14189 17.9711 3.14195 17.9711 3.14201C17.2682 3.85151 16.3152 4.25 15.3214 4.25C14.3277 4.25 13.3747 3.85151 12.6718 3.14201C12.6717 3.14195 12.6717 3.14189 12.6716 3.14183L12.2404 2.70638C10.841 1.29372 8.94334 0.5 6.96429 0.5C4.98523 0.5 3.08756 1.29372 1.6882 2.70638L1.68811 2.70647L0.543922 3.8617C-0.181324 4.59394 -0.181305 5.78113 0.543968 6.51335C1.26924 7.24557 2.44512 7.24555 3.17036 6.5133L4.31446 5.35817C4.31449 5.35814 4.31452 5.35811 4.31455 5.35808C5.01747 4.64852 5.97047 4.25 6.96429 4.25C7.95806 4.25 8.91102 4.64849 9.61393 5.35799C9.61396 5.35802 9.61399 5.35804 9.61402 5.35807C9.61405 5.3581 9.61408 5.35814 9.61411 5.35817L10.0453 5.79362C11.4447 7.20628 13.3424 8 15.3214 8C17.3005 8 19.1982 7.20628 20.5975 5.79362L21.0287 5.35817C21.0288 5.35814 21.0288 5.3581 21.0288 5.35807C21.0289 5.35804 21.0289 5.35802 21.0289 5.35799C21.7318 4.64849 22.6848 4.25 23.6786 4.25ZM23.6786 15.5C24.6725 15.5 25.6255 15.8986 26.3282 16.6081L26.7595 17.0434C26.7596 17.0435 26.7596 17.0435 26.7596 17.0436C26.7597 17.0436 26.7597 17.0436 26.7597 17.0436C28.1591 18.4565 30.0569 19.25 32.0357 19.25C34.0145 19.25 35.9124 18.4565 37.3118 17.0435C37.3118 17.0435 37.3119 17.0435 37.3119 17.0434L38.456 15.8883C39.1813 15.1561 39.1813 13.9689 38.4561 13.2367C37.7308 12.5045 36.555 12.5044 35.8297 13.2367L34.6855 14.3918L34.6854 14.3919C33.9827 15.1014 33.0296 15.5 32.0357 15.5C31.0418 15.5 30.0887 15.1014 29.3861 14.3919L28.9548 13.9566C28.9547 13.9565 28.9547 13.9565 28.9546 13.9564C28.9546 13.9564 28.9546 13.9564 28.9546 13.9564C27.5552 12.5435 25.6574 11.75 23.6786 11.75C21.6996 11.75 19.8018 12.5436 18.4024 13.9565L17.9712 14.3919C17.2683 15.1015 16.3153 15.5 15.3214 15.5C14.3275 15.5 13.3745 15.1015 12.6717 14.3919L12.2404 13.9565C10.841 12.5436 8.94329 11.75 6.96429 11.75C4.98529 11.75 3.08756 12.5436 1.68813 13.9565L0.543945 15.1117C-0.181313 15.8439 -0.181313 17.0311 0.543945 17.7633C1.26921 18.4956 2.44508 18.4956 3.17035 17.7633L4.31453 16.6081C5.01739 15.8985 5.97038 15.5 6.96429 15.5C7.9582 15.5 8.91118 15.8985 9.61405 16.6081L10.0453 17.0435C11.4447 18.4564 13.3424 19.25 15.3214 19.25C17.3004 19.25 19.1982 18.4564 20.5976 17.0435L21.0288 16.6081C21.7317 15.8985 22.6847 15.5 23.6786 15.5ZM23.6786 26.75C24.6725 26.75 25.6255 27.1486 26.3282 27.8581L26.7595 28.2934C26.7596 28.2935 26.7596 28.2935 26.7596 28.2936C26.7597 28.2936 26.7597 28.2936 26.7597 28.2936C28.1591 29.7065 30.0569 30.5 32.0357 30.5C34.0145 30.5 35.9124 29.7065 37.3118 28.2935C37.3118 28.2935 37.3119 28.2935 37.3119 28.2934L38.456 27.1383C39.1813 26.4061 39.1813 25.2189 38.4561 24.4867C37.7308 23.7545 36.555 23.7544 35.8297 24.4867L34.6855 25.6418L34.6854 25.6419C33.9827 26.3514 33.0296 26.75 32.0357 26.75C31.0418 26.75 30.0887 26.3514 29.3861 25.6419L28.9548 25.2066C28.9547 25.2065 28.9547 25.2065 28.9546 25.2064C28.9546 25.2064 28.9546 25.2064 28.9546 25.2064C27.5552 23.7935 25.6574 23 23.6786 23C21.6996 23 19.8018 23.7936 18.4024 25.2065L17.9712 25.6419C17.2683 26.3515 16.3153 26.75 15.3214 26.75C14.3275 26.75 13.3745 26.3515 12.6717 25.6419L12.2404 25.2065C10.841 23.7936 8.94329 23 6.96429 23C4.98529 23 3.08756 23.7936 1.68813 25.2065L0.543945 26.3617C-0.181313 27.0939 -0.181313 28.2811 0.543945 29.0133C1.26921 29.7456 2.44508 29.7456 3.17035 29.0133L4.31453 27.8581C5.01739 27.1485 5.97038 26.75 6.96429 26.75C7.9582 26.75 8.91118 27.1485 9.61405 27.8581L10.0453 28.2935C11.4447 29.7064 13.3424 30.5 15.3214 30.5C17.3004 30.5 19.1982 29.7064 20.5976 28.2935L21.0288 27.8581C21.7317 27.1485 22.6847 26.75 23.6786 26.75Z" fill="black"/>
</svg>
